<?xml version="1.0" encoding="utf-8"?>
<!-- Generator: Adobe Illustrator 16.0.0, SVG Export Plug-In . SVG Version: 6.00 Build 0)  -->
<!DOCTYPE svg PUBLIC "-//W3C//DTD SVG 1.1//EN" "http://www.w3.org/Graphics/SVG/1.1/DTD/svg11.dtd">
<svg version="1.1" id="Layer_1" xmlns="http://www.w3.org/2000/svg" xmlns:xlink="http://www.w3.org/1999/xlink" x="0px" y="0px"
	 width="300px" height="300px" viewBox="0 0 300 300" enable-background="new 0 0 300 300" xml:space="preserve">
<g>
	<circle fill="#39B54A" cx="150" cy="150.197" r="150"/>
	<path fill="#99FF99" d="M255.262,110.3c-2.627,0-4.797,0.885-6.512,2.65c-1.719,1.768-2.576,3.964-2.576,6.588v38.771
		c0,5.756-1.438,10.174-4.316,13.252c-2.877,3.082-6.941,4.619-12.191,4.619c-5.352,0-9.416-1.387-12.191-4.164
		c-2.777-2.775-4.164-7.346-4.164-13.707v-38.771c0-2.624-0.859-4.82-2.574-6.588c-1.719-1.765-3.889-2.65-6.514-2.65
		s-4.795,0.885-6.512,2.65c-1.717,1.768-2.574,3.964-2.574,6.588v44.224c0,5.654,1.109,10.676,3.332,15.068
		c2.219,4.393,5.35,7.826,9.389,10.299c4.037,2.473,8.684,3.711,13.934,3.711c11.105,0,19.283-3.281,24.535-9.846v1.516
		c0,7.471-1.691,12.744-5.074,15.826c-3.383,3.078-8.658,4.619-15.826,4.619c-2.119,0-4.164-0.227-6.133-0.682
		s-3.838-1.037-5.604-1.742c-1.768-0.707-3.006-1.211-3.711-1.514c-0.908-0.303-1.869-0.455-2.877-0.455
		c-1.719,0-3.309,0.58-4.771,1.742c-1.465,1.16-2.498,2.852-3.104,5.074c-0.305,0.908-0.455,1.715-0.455,2.422
		c0,3.734,2.473,6.664,7.42,8.785c2.221,0.908,5.125,1.639,8.709,2.195c3.582,0.555,7.092,0.834,10.525,0.834
		c11.813,0,21.252-3.006,28.32-9.012c7.066-6.008,10.602-15.576,10.602-28.699v-64.366c0-2.624-0.857-4.82-2.574-6.588
		C260.057,111.185,257.887,110.3,255.262,110.3z M161.818,150.888c0,4.948-1.035,9.34-3.104,13.176
		c-2.07,3.838-4.848,6.814-8.331,8.936c-3.483,2.119-7.345,3.18-11.586,3.18s-8.103-1.061-11.586-3.18
		c-3.483-2.121-6.261-5.098-8.33-8.936c-2.07-3.836-3.104-8.229-3.104-13.176c0-4.946,1.034-9.364,3.104-13.252
		c2.068-3.885,4.846-6.891,8.33-9.011c3.483-2.12,7.345-3.18,11.586-3.18s8.103,1.06,11.586,3.18
		c3.483,2.121,6.26,5.126,8.331,9.011C160.783,141.524,161.818,145.942,161.818,150.888z M179.992,150.888
		c0-8.077-1.816-15.32-5.451-21.733c-3.635-6.411-8.609-11.408-14.918-14.993c-6.311-3.583-13.252-5.376-20.825-5.376
		c-7.674,0-14.641,1.793-20.9,5.376c-6.261,3.585-11.207,8.583-14.842,14.993c-3.635,6.413-5.452,13.656-5.452,21.733
		c0,8.079,1.817,15.323,5.452,21.733c3.635,6.412,8.581,11.385,14.842,14.918c6.259,3.535,13.226,5.301,20.9,5.301
		c7.572,0,14.514-1.766,20.825-5.301c6.309-3.533,11.283-8.506,14.918-14.918C178.176,166.211,179.992,158.967,179.992,150.888z
		 M71.556,100.456c3.533,0,6.032-0.53,7.497-1.59c1.462-1.06,2.196-3.053,2.196-5.982v-2.877c0-2.825-0.708-4.794-2.12-5.906
		c-1.415-1.11-3.888-1.666-7.421-1.666c-3.332,0-5.755,0.556-7.27,1.666c-1.515,1.112-2.271,3.081-2.271,5.906v2.877
		c0,2.828,0.705,4.797,2.12,5.907C65.699,99.902,68.123,100.456,71.556,100.456z M56.108,221.008c4.643,0,8.86-1.162,12.646-3.482
		c3.786-2.324,6.763-5.604,8.936-9.844c2.17-4.24,3.256-9.189,3.256-14.842v-73.302c0-2.624-0.859-4.82-2.575-6.588
		c-1.718-1.765-3.888-2.65-6.512-2.65c-2.626,0-4.796,0.885-6.512,2.65c-1.718,1.768-2.575,3.964-2.575,6.588v68.001
		c0,4.24-0.431,7.545-1.287,9.92c-0.859,2.371-2.904,4.063-6.134,5.072c-5.149,1.516-7.724,4.291-7.724,8.33v1.666
		c0,2.424,0.809,4.441,2.423,6.059C51.665,220.199,53.685,221.008,56.108,221.008z"/>
	<path fill="#FFFFFF" d="M247.371,104.594c-2.625,0-4.795,0.885-6.512,2.65c-1.717,1.768-2.574,3.964-2.574,6.588v38.771
		c0,5.754-1.439,10.172-4.316,13.252s-6.943,4.619-12.191,4.619c-5.354,0-9.416-1.387-12.191-4.166
		c-2.779-2.775-4.166-7.346-4.166-13.705v-38.771c0-2.624-0.857-4.82-2.574-6.588c-1.717-1.765-3.887-2.65-6.512-2.65
		c-2.627,0-4.797,0.885-6.512,2.65c-1.719,1.768-2.576,3.964-2.576,6.588v44.223c0,5.656,1.111,10.678,3.332,15.07
		c2.221,4.391,5.352,7.824,9.391,10.297c4.037,2.475,8.682,3.711,13.934,3.711c11.105,0,19.283-3.279,24.533-9.844v1.514
		c0,7.471-1.691,12.746-5.072,15.826c-3.385,3.08-8.658,4.619-15.826,4.619c-2.121,0-4.166-0.227-6.135-0.68
		c-1.969-0.455-3.838-1.037-5.604-1.742c-1.768-0.707-3.004-1.213-3.709-1.516c-0.91-0.303-1.871-0.453-2.879-0.453
		c-1.717,0-3.309,0.58-4.77,1.742c-1.465,1.158-2.5,2.85-3.105,5.072c-0.303,0.908-0.455,1.717-0.455,2.424
		c0,3.734,2.475,6.664,7.422,8.783c2.219,0.908,5.123,1.641,8.709,2.197c3.582,0.553,7.092,0.832,10.525,0.832
		c11.813,0,21.252-3.006,28.32-9.012c7.066-6.008,10.602-15.574,10.602-28.699v-64.365c0-2.624-0.859-4.82-2.574-6.588
		C252.166,105.479,249.996,104.594,247.371,104.594z M153.93,145.182c0,4.948-1.037,9.339-3.105,13.175
		c-2.071,3.838-4.847,6.816-8.33,8.936c-3.483,2.121-7.345,3.182-11.586,3.182s-8.103-1.061-11.586-3.182
		c-3.483-2.119-6.261-5.098-8.33-8.936c-2.07-3.836-3.104-8.228-3.104-13.175c0-4.946,1.034-9.364,3.104-13.252
		c2.068-3.885,4.846-6.891,8.33-9.011c3.483-2.12,7.345-3.18,11.586-3.18s8.103,1.06,11.586,3.18
		c3.483,2.121,6.259,5.126,8.33,9.011C152.893,135.818,153.93,140.236,153.93,145.182z M172.104,145.182
		c0-8.077-1.818-15.32-5.453-21.733c-3.635-6.411-8.607-11.408-14.918-14.993c-6.311-3.583-13.251-5.376-20.824-5.376
		c-7.674,0-14.641,1.793-20.9,5.376c-6.261,3.585-11.207,8.583-14.842,14.993c-3.635,6.413-5.452,13.656-5.452,21.733
		c0,8.08,1.817,15.322,5.452,21.732c3.635,6.414,8.581,11.385,14.842,14.918c6.259,3.535,13.226,5.301,20.9,5.301
		c7.572,0,14.513-1.766,20.824-5.301c6.311-3.533,11.283-8.504,14.918-14.918C170.285,160.504,172.104,153.262,172.104,145.182z
		 M63.667,94.75c3.533,0,6.032-0.53,7.497-1.59c1.462-1.06,2.196-3.053,2.196-5.982V84.3c0-2.825-0.708-4.794-2.12-5.906
		c-1.415-1.11-3.888-1.666-7.421-1.666c-3.332,0-5.755,0.556-7.27,1.666c-1.515,1.112-2.271,3.081-2.271,5.906v2.877
		c0,2.828,0.705,4.797,2.12,5.907C57.81,94.196,60.233,94.75,63.667,94.75z M48.219,215.303c4.643,0,8.86-1.162,12.646-3.484
		s6.763-5.604,8.936-9.844c2.17-4.24,3.256-9.188,3.256-14.842v-73.301c0-2.624-0.859-4.82-2.575-6.588
		c-1.718-1.765-3.888-2.65-6.512-2.65c-2.626,0-4.796,0.885-6.512,2.65c-1.718,1.768-2.575,3.964-2.575,6.588v68
		c0,4.24-0.431,7.547-1.287,9.92c-0.859,2.371-2.904,4.063-6.134,5.074c-5.149,1.514-7.724,4.289-7.724,8.33v1.666
		c0,2.422,0.809,4.441,2.423,6.057C43.775,214.494,45.795,215.303,48.219,215.303z"/>
</g>
</svg>
